<svg id="Capa_1" data-name="Capa 1" xmlns="http://www.w3.org/2000/svg" viewBox="0 0 1366 768"><defs><style>.cls-1{fill:#45d8ff;}</style></defs><title>Mesa de trabajo 1svg</title><path class="cls-1" d="M262.62062,131.27575a5.44331,5.44331,0,0,0-2.46861,2.22174c-.41143.82287-.90515,13.57731-1.152,28.38893l-.41143,26.90776-2.71547,2.79775c-1.48116,1.56344-6.50065,4.85491-11.10871,7.32352-23.69857,12.83673-35.13643,21.88827-47.39715,37.1936-11.02643,13.90646-20.4894,39.00391-16.37506,43.11825,1.31658,1.31659,6.82979,1.2343,7.89952-.08229a50.33424,50.33424,0,0,0,3.04461-7.57038c6.99437-20.48939,20.32482-38.51019,37.029-50.11262,4.11434-2.88,12.58987-7.89953,18.84366-11.27328,13.90646-7.32352,19.41967-12.01386,21.806-18.51452,1.64573-4.19662,1.728-6.33608,1.728-30.69295,0-23.78086-.16457-26.414-1.39887-27.8952A6.976,6.976,0,0,0,262.62062,131.27575Z"/><path class="cls-1" d="M359.18276,131.27575c-4.3612,1.728-4.44348,2.55089-4.44348,29.70551,0,17.03336.32914,26.0849.98744,27.97749,1.81031,5.34864,4.77263,8.96926,10.36813,12.58987,24.27458,15.71677,31.5981,20.24254,32.66783,20.24254,2.79775,0,4.77263-6.41837,2.88-9.79212-.41144-.82287-4.93721-4.19663-10.039-7.57038-18.5968-12.26073-21.55912-14.40018-23.20486-16.53964-1.48116-2.13945-1.56344-3.456-1.39887-28.05977l.16457-25.838-2.22174-1.81031C362.55652,130.28831,361.81594,130.206,359.18276,131.27575Z"/><path class="cls-1" d="M298.52577,146.181c-4.11434,1.64573-4.11434,1.39887-4.52577,36.53531l-.41143,32.91469-5.26635,1.06973c-7.98182,1.64573-21.55913,7.735-32.58555,14.72932-12.4253,7.81724-27.64834,22.46428-35.46558,34.149-5.34864,8.0641-10.94414,20.078-13.00131,28.05977L206.20005,298l-41.30794.41143c-39.74449.41144-41.39022.49372-42.54224,1.97489a8.44689,8.44689,0,0,0-1.152,4.27891c0,5.43092-1.2343,5.26635,47.47944,5.26635,31.43354,0,43.85883-.24686,43.85883-.90516,0-2.13945,8.7224-22.79342,12.58987-29.7878,5.67779-10.45041,9.463-15.38761,18.59681-24.43916,15.96362-15.79905,33.573-24.7683,57.27156-29.1295l4.93721-.90515.41143-17.28022c.24686-9.54526.41143-26.414.41143-37.605,0-19.25509-.08228-20.40711-1.64573-21.97055C303.05154,145.93411,300.66523,145.27582,298.52577,146.181Z"/><path class="cls-1" d="M321.54958,147.0748a14.5977,14.5977,0,0,0-2.304,3.78519c-.32915,1.06973-.32915,17.69165,0,36.94675.49372,27.48377.90515,35.13643,1.728,36.04159a12.11445,12.11445,0,0,0,4.608,1.64573c1.97489.32915,8.14639,2.05717,13.82418,3.86748,29.37636,9.38069,50.93548,26.414,63.44307,50.27719,12.343,23.6163,13.90646,48.87832,4.69034,77.84325-4.27891,13.74189-9.79212,22.958-22.79342,38.51019-4.77263,5.84236-10.69728,11.84929-13.90646,14.3179-8.7224,6.58294-29.70551,16.29277-44.6817,20.57168l-6.25379,1.728-.49372,20.40711c-.32915,11.191-.32915,25.50889,0,31.76268.49372,10.36813.65829,11.52014,2.38631,13.24817,2.38632,2.38631,5.18407,2.38631,8.0641.16457L332,496.54656V439.851l1.89259-.74058c.98745-.41143,5.51322-1.89259,10.039-3.29147a111.32,111.32,0,0,0,58.99959-44.51712c17.9385-26.99,24.43916-52.41665,20.90083-81.38158-2.96233-23.94544-12.4253-42.37767-31.59811-61.71505C377.34,233.229,360.63578,223.19,341.2984,217.51225L332,214.79679v-65.994l-1.89259-1.728A6.00524,6.00524,0,0,0,321.54958,147.0748Z"/><path class="cls-1" d="M143.88406,156.62006c-5.43092,2.71547-7.89952,8.64011-6.50065,15.30534,1.06973,4.69034,3.45605,7.57038,7.65267,9.21611,9.13383,3.456,17.69165-3.04461,17.69165-13.57731,0-3.456-.41144-4.60806-2.63318-7.159C155.48649,155.22119,149.39728,153.74,143.88406,156.62006Z"/><path class="cls-1" d="M392.30772,173.242c-2.22175,2.22175-2.13946,6.74752.24686,9.463,1.2343,1.39887,3.78519,2.63317,7.98181,3.78519,7.81724,2.22174,22.79342,9.70983,29.21179,14.647a102.53459,102.53459,0,0,1,19.58424,20.078c4.69035,6.58294,10.94414,19.33738,14.56475,29.95237,1.48117,4.11434,3.37376,8.311,4.19663,9.21612,3.37375,3.62061,8.96925,1.2343,8.96925-3.86748,0-10.12127-9.2984-30.61067-20.57168-45.42228-5.5955-7.4058-17.11564-18.43223-24.11-23.20486-6.74751-4.608-17.9385-9.95669-24.35687-11.68471a85.138,85.138,0,0,1-8.887-3.04461C394.61174,171.18482,394.36488,171.18482,392.30772,173.242Z"/><path class="cls-1" d="M221.97418,174.394c-13.16588,1.97488-19.91339,5.26635-33.98443,16.45735-19.50195,15.4699-28.80035,28.63578-36.20616,51.10006-2.96232,8.96925-3.86748,14.2356-2.88,16.78649.98744,2.71546,2.05716,3.37376,5.76007,3.37376s4.36119-1.06973,7.48809-12.09615c3.20918-11.27328,6.74751-19.99568,10.5327-25.838,9.13383-14.15331,20.73626-24.93288,34.47814-31.92725,7.89953-4.03205,12.26073-5.34864,20.73626-6.33608,4.60806-.49372,4.77263-.65829,6.41837-4.11433,1.56344-3.1269,1.64573-3.86748.65829-5.84236C233.65889,173.1597,231.84858,172.99512,221.97418,174.394Z"/><path class="cls-1" d="M409.01192,220.34775a8.09607,8.09607,0,0,0-3.12689,3.29146c-1.56345,3.04461-1.97489,2.22175,6.8298,12.01387,12.01386,13.24816,14.89389,17.93851,26.74318,43.11825,3.70291,7.89952,9.463,15.63448,13.82418,18.34994,2.05716,1.31659,4.9372,1.56345,24.43916,1.97488l22.21741.49372,2.13946-2.13945a11.69113,11.69113,0,0,0,2.63317-4.3612c.49372-1.81031.16458-2.63318-1.64573-4.19663C500.84392,287,500.59706,287,481.0951,287H461.34629l-4.19663-3.86748c-3.29147-3.20918-5.34864-6.41836-10.5327-16.7042-7.65267-15.223-15.55219-27.40149-24.1923-37.19361-5.10178-5.92464-9.95669-9.95669-11.35557-9.62755A13.28183,13.28183,0,0,0,409.01192,220.34775Z"/><path class="cls-1" d="M304.67234,238.00164c-24.85059,3.20919-43.77654,12.343-57.18928,27.40149-12.09615,13.6596-19.8311,28.71807-22.79342,44.51712-1.97488,10.5327-1.97488,31.76268,0,39.74449q5.55435,22.094,25.59117,42.13081c21.14769,20.98312,45.916,31.10439,69.61458,28.38892,10.69727-1.31658,30.3638-6.82979,31.0221-8.80468.16457-.41143-.98744-2.304-2.4686-4.03205l-2.79775-3.20918-7.735,2.13946c-11.93157,3.37375-18.26765,4.19662-27.40148,3.7029-9.54526-.576-15.96363-2.22174-27.31919-7.24123-16.37506-7.159-26.82548-16.1282-37.029-31.6804-9.9567-15.05847-13.16588-26.6609-12.4253-44.68169.32915-8.887.82287-11.767,3.37375-19.83111,8.7224-27.97749,21.1477-42.37766,44.51713-51.75835,13.82417-5.51321,21.14769-6.91209,34.149-6.41837,13.74189.49372,21.23,2.38632,32.50326,7.98182,19.502,9.8744,34.31357,26.82547,40.07364,46.08057,2.13946,6.91208,2.96232,26.16718,1.48116,35.21872-2.38631,15.38762-8.6401,28.71807-18.34994,39.00391-1.97488,2.13946-2.05717,2.38632-.65829,3.04461a21.63848,21.63848,0,0,1,3.78519,4.11434,12.57747,12.57747,0,0,0,2.79775,3.37375c1.39887,0,11.767-15.05847,14.48246-20.98311,10.615-22.958,13.00131-45.34,6.99437-65.1711-3.29147-10.94413-5.10177-14.8939-10.5327-23.28714-7.89952-11.84929-20.57168-23.45172-33.98442-30.77524C342.03052,240.22339,319.2371,236.10905,304.67234,238.00164Z"/><path class="cls-1" d="M302.20374,260.46592c-20.078,2.38632-40.73193,17.77394-49.78347,37.11132-4.27891,9.13383-5.92465,17.11564-6.33608,30.69295-.49372,13.33045.08229,17.77394,3.62061,26.82548,6.33608,16.04591,26.0849,34.80729,42.46,40.23821,16.04591,5.34864,34.64271,5.51321,47.97317.41143,2.96232-1.152,3.456-1.728,3.94976-4.36119a10.094,10.094,0,0,1,2.55089-5.01949c1.06973-.98744,1.81031-2.13946,1.64573-2.46861-.24686-.41143-3.7029.41144-7.735,1.728-18.34994,5.92464-33.07927,5.34863-48.3846-1.728-28.96493-13.41273-41.63709-39.74449-33.98442-70.35515q7.15895-28.38893,33.16155-39.25078c23.04029-9.70983,56.61328.32915,68.62714,20.4894a53.15641,53.15641,0,0,1,7.81724,26.99c.16457,23.20486-12.01386,39.57992-34.31357,46.40972-16.86878,5.18406-31.0221,1.64573-43.612-11.02642-9.70983-9.70984-13.495-19.502-12.50758-32.33869,1.06973-12.4253,9.38069-25.01517,19.74881-29.7878,11.02643-5.10178,20.32483-5.10178,31.35125-.08229,9.87441,4.52578,15.46991,11.10871,18.18537,21.06541l1.48116,5.18406,4.19662.576c2.304.32915,4.85492.74058,5.67779.98744,1.31658.32915,1.39887,0,.90515-2.79775-2.55089-14.56475-12.01386-27.56605-24.1923-33.32613-7.81724-3.7029-12.919-4.77263-22.46428-4.77263-12.83673,0-22.62885,3.62062-30.85752,11.52015-8.39325,7.98181-12.4253,16.29277-14.15332,28.80035-1.8926,13.98875,1.81031,26.82548,11.191,38.181,13.57731,16.45735,33.16155,22.62885,56.11955,17.69165,17.69165-3.78519,30.77524-13.495,38.09876-28.30664,4.36119-8.80468,6.00693-18.02079,5.43092-30.85753-.41143-11.191-2.13945-17.03335-7.81724-26.74318C357.17128,269.76432,330.01666,257.09217,302.20374,260.46592Z"/><path class="cls-1" d="M310.84385,299.88127a56.93087,56.93087,0,0,0-13.74189,7.57038,20.85128,20.85128,0,0,0-6.99437,8.72239c-2.38631,4.93721-2.71546,6.33608-2.71546,12.17844,0,8.64011,2.05717,12.75444,10.5327,21.23,8.39325,8.47553,14.81161,11.68471,23.20486,11.60243,10.12127-.16458,18.67909-3.70291,25.4266-10.53271,4.19662-4.19662,9.13383-12.919,10.039-17.69164.576-2.88-.576-3.62062-6.8298-4.44349l-3.456-.41143-1.728,5.10178a47.03189,47.03189,0,0,1-3.29147,7.65266c-3.29147,5.51321-13.82417,10.94414-20.98312,10.94414-4.44348,0-11.43785-2.55089-15.88134-5.76007-2.38631-1.64574-4.19662-4.19663-6.41836-8.55782-2.79775-5.84236-2.96232-6.58294-2.63318-12.17844a24.27843,24.27843,0,0,1,2.13946-9.38069c1.97488-3.94976,9.70983-11.191,14.2356-13.57731C316.52163,299.96356,315.94563,298.31782,310.84385,299.88127Z"/><path class="cls-1" d="M313.31245,307.94537c-8.0641,8.311-10.77956,16.70421-7.48809,23.12257,4.608,8.96926,17.93851,12.17844,24.52144,5.84236,3.94977-3.94976,6.2538-11.68472,5.10178-17.19793A19.86266,19.86266,0,0,0,321.788,304.407l-3.86747-1.152Zm10.94414,12.4253c2.22174,1.97488,1.8103,6.25379-.74058,8.311-2.79775,2.13945-5.5955,2.22174-7.735.08228-1.89259-1.89259-2.05717-3.7029-.49372-6.50065C317.42679,318.39578,320.96512,317.6552,324.25659,320.37067Z"/><path class="cls-1" d="M122.65409,325.061c-2.38632,1.64573-2.46861,5.5955-.32915,7.73495,2.4686,2.4686,7.32352,2.71546,47.80859,2.38632,38.51019-.24686,40.23822-.41144,41.47252-3.62062a5.47619,5.47619,0,0,0-2.13946-6.00693c-1.31659-.82287-11.35557-1.152-43.36511-1.39887C128.99017,323.82671,124.29982,323.909,122.65409,325.061Z"/><path class="cls-1" d="M455.01021,347.68986c-2.46861.576-5.84236,3.1269-10.28584,7.81724-2.38632,2.55089-6.74752,12.26072-11.191,25.01517-6.74751,19.00823-13.24816,29.21179-28.22435,43.94111-9.13383,8.887-16.62192,14.40018-29.45865,21.55913-10.615,6.00693-15.79905,9.62755-17.77394,12.50758-2.96232,4.44349-3.78519,10.77956-3.456,29.12951.24686,15.38762.41143,17.19792,1.81031,18.76137,1.97488,2.13946,7.159,2.38632,8.80468.32915.90515-.98744,1.2343-5.76007,1.56345-19.502.49372-23.28714.41143-22.958,15.55219-31.845,14.81161-8.80468,24.686-16.29278,34.64272-26.24947,12.75444-12.75445,20.40711-25.50889,29.29407-48.96061,4.44349-11.84929,7.57038-17.11564,11.767-19.91339,2.71546-1.81031,3.37375-1.89259,22.71113-1.89259,17.85623,0,20.16025-.16458,21.64142-1.48116,2.71546-2.304,2.96232-4.69035.82286-6.99438l-1.89259-2.05716-21.806-.41144C467.51779,347.27843,456.49137,347.36071,455.01021,347.68986Z"/><path class="cls-1" d="M123.55924,348.34816a8.92922,8.92922,0,0,0-2.79775,5.43092,5.42944,5.42944,0,0,0,1.64574,2.96232c1.56344,1.56345,2.71546,1.64574,41.88394,1.2586h40.23822l.576,3.43175c2.05717,11.10871,15.63448,33.4907,26.90777,44.35255,18.76137,18.10308,39.25077,30.11694,57.84757,33.90213L293,440.34472v27.48377c.81049,15.14076,1.30421,28.14207,1.63336,28.96493,1.06973,2.05717,5.26635,3.53833,7.81724,2.63318,3.94976-1.39887,4.11434-2.38632,3.78519-34.97186-.16457-16.7865-.49372-30.77524-.74058-31.18667s-2.55089-1.152-5.18406-1.728c-14.48247-2.96232-33.65528-11.68471-46.08057-21.0654-18.43223-13.74188-32.75013-33.16155-38.83934-52.49894a72.56107,72.56107,0,0,0-2.79775-7.81724L211.60605,348H168.07636C144.04864,347.77215,124.053,348.019,123.55924,348.34816Z"/><path class="cls-1" d="M181.07767,372.78732c-2.22174,1.56344-2.38632,3.7029-.576,10.615,1.64574,6.58294,10.039,23.69858,14.8939,30.28152,9.70983,13.33045,26.74319,28.22435,43.036,37.68733,14.071,8.14638,16.29278,9.79212,18.5968,13.08359,1.8926,2.88,1.97489,3.456,1.97489,19.00823,0,16.95107.65829,21.97056,2.96232,23.6163a5.49272,5.49272,0,0,0,7.65266-1.06973c1.64574-2.05717,1.728-3.20918,1.728-22.05285-.08229-26.74319,0-26.57861-19.74882-38.26333-5.67779-3.37375-12.09615-7.24123-14.40018-8.55782-21.64141-12.919-37.605-32.58555-44.92856-55.29668-1.39887-4.19663-2.96232-8.0641-3.53833-8.55782C186.75545,371.6353,182.97026,371.38844,181.07767,372.78732Z"/><path class="cls-1" d="M149.315,390.31439c-1.81031,1.97488-1.728,5.43092.24686,11.767a124.86383,124.86383,0,0,0,24.76831,44.6817c6.1715,6.99437,18.67908,17.52707,25.92032,21.97056,8.55782,5.10178,14.071,7.15894,23.04028,8.311,6.00693.74058,7.159.65829,8.96926-.49372,3.53833-2.304,2.304-9.463-1.97488-11.10871-1.152-.49372-6.00694-1.81031-10.69728-2.96232-12.343-3.04461-17.60936-6.08922-29.54094-16.70421-13.24816-11.84929-27.23691-35.301-29.45865-49.53662a11.41036,11.41036,0,0,0-2.4686-5.51321C155.73335,388.33951,151.20758,388.17493,149.315,390.31439Z"/><path class="cls-1" d="M466.94178,389.82067c-.90515.74058-2.304,4.19662-3.53833,8.887a96.09553,96.09553,0,0,1-25.4266,44.10569c-11.27328,11.35557-21.806,17.77393-36.20616,22.13513a55.82632,55.82632,0,0,0-8.39325,3.04461c-.576.49372-1.06972,2.4686-1.06972,4.44348,0,4.11434,1.39887,5.26635,6.1715,5.26635,4.03205,0,16.78649-4.3612,23.45172-7.98181,18.926-10.28584,37.1936-29.62323,46.492-49.28976,8.0641-16.95106,10.36813-26.49632,7.159-29.37636C473.36015,389.08009,468.83438,388.4218,466.94178,389.82067Z"/><path class="cls-1" d="M142.97891,459.76439c-4.69034,2.46861-6.74751,5.34864-7.159,10.28585-.74058,6.99437,3.86748,13.57731,10.20356,14.72932,8.80468,1.64574,16.45735-6.58294,14.72932-15.79905-.74058-3.86748-5.59549-9.13383-9.38068-10.20356C147.25782,457.70723,147.17553,457.70723,142.97891,459.76439Z"/><path d="M631.22119,357.57666c-5.58056,18.7832-19.44775,32.99756-44.47656,32.99756-33.9917,0-51.918-27.0752-51.918-60.41113,0-31.98291,17.58789-61.08838,52.08691-61.08838,25.53614,0,40.58741,14.21435,44.47706,34.01318H622.2583c-5.41162-15.39941-15.38916-25.55225-35.852-25.55225-29.42578,0-41.771,26.90577-41.771,52.458,0,25.3833,12.17627,52.11963,42.44727,52.11963,19.2793,0,29.08789-9.98389,35.00684-24.53662Z"/><path d="M756.35938,329.14746c0,32.32129-17.249,61.76563-53.77735,61.76563-33.31543,0-52.76367-26.90625-52.76367-60.91944,0-33.50537,18.77148-60.91894,53.94727-60.91894C736.23535,269.07471,756.35938,294.627,756.35938,329.14746Zm-96.73243.33838c0,27.24463,15.05078,52.96631,43.46192,52.96631,30.60937,0,43.46191-25.04492,43.46191-53.13526,0-27.583-14.543-51.78125-43.12305-51.78125C672.9873,277.53564,659.627,302.74951,659.627,329.48584Z"/><path d="M812.16309,389.2207,768.19336,270.7666H778.002l23,61.93457c6.59473,17.9375,14.03614,37.73633,16.57325,47.71973h.33789c2.53711-8.79883,10.65429-29.61328,17.249-47.043l23.8457-62.61133h9.63867L822.98633,389.2207Z"/><path d="M897.89941,270.7666V389.2207h-9.13183V270.7666Z"/><path d="M956.41016,279.22754H916.669V270.7666h88.95312v8.46094H965.71191V389.2207h-9.30175Z"/><path d="M1022.02441,348.26953l-15.05078,40.95117h-9.30175l43.46289-118.4541H1051.958l45.32226,118.4541h-9.97754l-15.38964-40.95117Zm46.84473-8.46094c-13.19141-35.19775-19.95508-52.12011-22.32324-60.07324h-.16895c-2.875,8.96875-10.48535,29.95215-21.13965,60.07324Z"/></svg>