<?xml version="1.0" standalone="no"?>
<!DOCTYPE svg PUBLIC "-//W3C//DTD SVG 20010904//EN"
 "http://www.w3.org/TR/2001/REC-SVG-20010904/DTD/svg10.dtd">
<svg version="1.0" xmlns="http://www.w3.org/2000/svg"
 width="501.000000pt" height="487.000000pt" viewBox="0 0 501.000000 487.000000"
 preserveAspectRatio="xMidYMid meet">

<g transform="translate(0.000000,487.000000) scale(0.100000,-0.100000)"
fill="#000000" stroke="none">
<path d="M1854 4720 c-12 -5 -25 -17 -30 -27 -5 -10 -11 -165 -14 -345 l-5
-327 -33 -34 c-18 -19 -79 -59 -135 -89 -288 -156 -427 -266 -576 -452 -134
-169 -249 -474 -199 -524 16 -16 83 -15 96 1 5 6 22 48 37 92 85 249 247 468
450 609 50 35 153 96 229 137 169 89 236 146 265 225 20 51 21 77 21 373 0
289 -2 321 -17 339 -21 24 -60 33 -89 22z"/>
<path d="M3024 4720 c-53 -21 -54 -31 -54 -361 0 -207 4 -317 12 -340 22 -65
58 -109 126 -153 295 -191 384 -246 397 -246 34 0 58 78 35 119 -5 10 -60 51
-122 92 -226 149 -262 175 -282 201 -18 26 -19 42 -17 341 l2 314 -27 22 c-29
23 -38 24 -70 11z"/>
<path d="M2285 4540 c-50 -20 -50 -17 -55 -444 l-5 -400 -64 -13 c-97 -20
-262 -94 -396 -179 -151 -95 -336 -273 -431 -415 -65 -98 -133 -244 -158 -341
l-13 -53 -502 -5 c-483 -5 -503 -6 -517 -24 -8 -11 -14 -34 -14 -52 0 -66 -15
-64 577 -64 382 0 533 3 533 11 0 26 106 277 153 362 69 127 115 187 226 297
194 192 408 301 696 354 l60 11 5 210 c3 116 5 321 5 457 0 234 -1 248 -20
267 -25 24 -54 32 -80 21z"/>
<path d="M2573 4528 c-11 -13 -24 -34 -28 -46 -4 -13 -4 -215 0 -449 6 -334
11 -427 21 -438 8 -7 33 -16 56 -20 24 -4 99 -25 168 -47 357 -114 619 -321
771 -611 150 -287 169 -594 57 -946 -52 -167 -119 -279 -277 -468 -58 -71
-130 -144 -169 -174 -106 -80 -361 -198 -543 -250 l-76 -21 -6 -248 c-4 -136
-4 -310 0 -386 6 -126 8 -140 29 -161 29 -29 63 -29 98 -2 l26 20 0 345 0 344
23 9 c12 5 67 23 122 40 289 90 545 283 717 541 218 328 297 637 254 989 -36
291 -151 515 -384 750 -181 182 -384 304 -619 373 l-113 33 0 401 0 401 -23
21 c-31 29 -78 29 -104 0z"/>
<path d="M411 4412 c-66 -33 -96 -105 -79 -186 13 -57 42 -92 93 -112 111 -42
215 37 215 165 0 42 -5 56 -32 87 -56 63 -130 81 -197 46z"/>
<path d="M3430 4210 c-27 -27 -26 -82 3 -115 15 -17 46 -32 97 -46 95 -27 277
-118 355 -178 84 -64 182 -164 238 -244 57 -80 133 -235 177 -364 18 -50 41
-101 51 -112 41 -44 109 -15 109 47 0 123 -113 372 -250 552 -68 90 -208 224
-293 282 -82 56 -218 121 -296 142 -35 10 -83 26 -108 37 -55 24 -58 24 -83
-1z"/>
<path d="M1360 4196 c-160 -24 -242 -64 -413 -200 -237 -188 -350 -348 -440
-621 -36 -109 -47 -173 -35 -204 12 -33 25 -41 70 -41 45 0 53 13 91 147 39
137 82 243 128 314 111 172 252 303 419 388 96 49 149 65 252 77 56 6 58 8 78
50 19 38 20 47 8 71 -16 34 -38 36 -158 19z"/>
<path d="M3633 3640 c-12 -5 -29 -23 -38 -40 -19 -37 -24 -27 83 -146 146
-161 181 -218 325 -524 45 -96 115 -190 168 -223 25 -16 60 -19 297 -24 l270
-6 26 26 c14 14 28 38 32 53 6 22 2 32 -20 51 -27 23 -30 23 -267 23 l-240 0
-51 47 c-40 39 -65 78 -128 203 -93 185 -189 333 -294 452 -62 72 -121 121
-138 117 -2 0 -13 -4 -25 -9z"/>
<path d="M2365 3423 c-302 -39 -532 -150 -695 -333 -147 -166 -241 -349 -277
-541 -24 -128 -24 -386 0 -483 45 -179 149 -350 311 -512 257 -255 558 -378
846 -345 130 16 369 83 377 107 2 5 -12 28 -30 49 l-34 39 -94 -26 c-145 -41
-222 -51 -333 -45 -116 7 -194 27 -332 88 -199 87 -326 196 -450 385 -121 183
-160 324 -151 543 4 108 10 143 41 241 106 340 257 515 541 629 168 67 257 84
415 78 167 -6 258 -29 395 -97 237 -120 417 -326 487 -560 26 -84 36 -318 18
-428 -29 -187 -105 -349 -223 -474 -24 -26 -25 -29 -8 -37 9 -6 30 -28 46 -50
15 -23 31 -41 34 -41 17 0 143 183 176 255 129 279 158 551 85 792 -40 133
-62 181 -128 283 -96 144 -250 285 -413 374 -150 82 -427 132 -604 109z"/>
<path d="M2335 3150 c-244 -29 -495 -216 -605 -451 -52 -111 -72 -208 -77
-373 -6 -162 1 -216 44 -326 77 -195 317 -423 516 -489 195 -65 421 -67 583
-5 36 14 42 21 48 53 3 21 17 47 31 61 13 12 22 26 20 30 -3 5 -45 -5 -94 -21
-223 -72 -402 -65 -588 21 -352 163 -506 483 -413 855 58 230 192 389 403 477
280 118 688 -4 834 -249 62 -104 95 -218 95 -328 2 -282 -146 -481 -417 -564
-205 -63 -377 -20 -530 134 -118 118 -164 237 -152 393 13 151 114 304 240
362 134 62 247 62 381 1 120 -55 188 -135 221 -256 l18 -63 51 -7 c28 -4 59
-9 69 -12 16 -4 17 0 11 34 -31 177 -146 335 -294 405 -95 45 -157 58 -273 58
-156 0 -275 -44 -375 -140 -102 -97 -151 -198 -172 -350 -23 -170 22 -326 136
-464 165 -200 403 -275 682 -215 215 46 374 164 463 344 53 107 73 219 66 375
-5 136 -26 207 -95 325 -159 272 -489 426 -827 385z"/>
<path d="M2440 2671 c-43 -14 -113 -52 -167 -92 -39 -29 -60 -55 -85 -106 -29
-60 -33 -77 -33 -148 0 -105 25 -155 128 -258 102 -103 180 -142 282 -141 123
2 227 45 309 128 51 51 111 157 122 215 7 35 -7 44 -83 54 l-42 5 -21 -62
c-11 -33 -29 -75 -40 -93 -40 -67 -168 -133 -255 -133 -54 0 -139 31 -193 70
-29 20 -51 51 -78 104 -34 71 -36 80 -32 148 3 47 12 88 26 114 24 48 118 136
173 165 58 29 51 49 -11 30z"/>
<path d="M2470 2573 c-98 -101 -131 -203 -91 -281 56 -109 218 -148 298 -71
48 48 76 142 62 209 -19 91 -82 161 -166 186 l-47 14 -56 -57z m133 -151 c27
-24 22 -76 -9 -101 -34 -26 -68 -27 -94 -1 -23 23 -25 45 -6 79 26 47 69 56
109 23z"/>
<path d="M153 2365 c-29 -20 -30 -68 -4 -94 30 -30 89 -33 581 -29 468 3 489
5 504 44 9 24 -3 58 -26 73 -16 10 -138 14 -527 17 -451 4 -508 3 -528 -11z"/>
<path d="M4192 2090 c-30 -7 -71 -38 -125 -95 -29 -31 -82 -149 -136 -304 -82
-231 -161 -355 -343 -534 -111 -108 -202 -175 -358 -262 -129 -73 -192 -117
-216 -152 -36 -54 -46 -131 -42 -354 3 -187 5 -209 22 -228 24 -26 87 -29 107
-4 11 12 15 70 19 237 6 283 5 279 189 387 180 107 300 198 421 319 155 155
248 310 356 595 54 144 92 208 143 242 33 22 41 23 276 23 217 0 245 2 263 18
33 28 36 57 10 85 l-23 25 -265 5 c-146 2 -280 1 -298 -3z"/>
<path d="M164 2082 c-15 -10 -34 -47 -34 -66 0 -9 9 -25 20 -36 19 -19 33 -20
509 -20 l489 0 7 -37 c25 -135 190 -407 327 -539 228 -220 477 -366 703 -412
l40 -8 5 -334 c3 -184 9 -342 13 -352 13 -25 64 -43 95 -32 48 17 50 29 46
425 -2 204 -6 374 -9 379 -3 5 -31 14 -63 21 -176 36 -409 142 -560 256 -224
167 -398 403 -472 638 -12 39 -27 81 -34 95 l-12 25 -529 2 c-292 2 -535 -1
-541 -5z"/>
<path d="M863 1785 c-27 -19 -29 -45 -7 -129 20 -80 122 -288 181 -368 118
-162 325 -343 523 -458 171 -99 198 -119 226 -159 23 -35 24 -42 24 -231 0
-206 8 -267 36 -287 30 -22 70 -16 93 13 20 25 21 39 21 268 -1 325 0 323
-240 465 -69 41 -147 88 -175 104 -263 157 -457 396 -546 672 -17 51 -36 98
-43 104 -24 20 -70 23 -93 6z"/>
<path d="M477 1572 c-22 -24 -21 -66 3 -143 61 -199 171 -396 301 -543 75 -85
227 -213 315 -267 104 -62 171 -87 280 -101 73 -9 87 -8 109 6 43 28 28 115
-24 135 -14 6 -73 22 -130 36 -150 37 -214 74 -359 203 -161 144 -331 429
-358 602 -4 25 -17 54 -30 67 -29 29 -84 31 -107 5z"/>
<path d="M4337 1578 c-11 -9 -28 -51 -43 -108 -53 -203 -157 -384 -309 -536
-137 -138 -265 -216 -440 -269 -49 -15 -96 -32 -102 -37 -7 -6 -13 -30 -13
-54 0 -50 17 -64 75 -64 49 0 204 53 285 97 230 125 452 360 565 599 98 206
126 322 87 357 -27 24 -82 32 -105 15z"/>
<path d="M400 728 c-57 -30 -82 -65 -87 -125 -9 -85 47 -165 124 -179 107 -20
200 80 179 192 -9 47 -68 111 -114 124 -50 13 -51 13 -102 -12z"/>
</g>
</svg>
